<?xml version="1.0" encoding="utf-8"?>
<!-- Generator: Adobe Illustrator 23.0.1, SVG Export Plug-In . SVG Version: 6.00 Build 0)  -->
<svg version="1.1" id="Layer_1" xmlns="http://www.w3.org/2000/svg" xmlns:xlink="http://www.w3.org/1999/xlink" x="0px" y="0px"
	 viewBox="0 0 122.8 110.6" style="enable-background:new 0 0 122.8 110.6;" xml:space="preserve">
<style type="text/css">
	.st0{fill:#4B4B4B;}
</style>
<path class="st0" d="M34.9,26.1L19.5,10.8c-0.2-0.2-0.4-0.4-0.7-0.6c-1.1-0.8-2.5-0.8-3.5,0.1c-1.1,0.9-1.3,2.5-0.5,3.6
	c0.2,0.4,0.5,0.7,0.8,1l1,1c4.4,4.4,8.8,8.8,13.2,13.2c-2.5,2.5-5,5-7.5,7.5l-6.9,6.9c-0.8,0.8-1.2,1.6-1.2,2.5c0,0.7,0.3,1.4,0.9,2
	c0.3,0.3,1,0.8,1.9,0.8c0.8,0,1.6-0.4,2.4-1.2l15.4-15.4c0.4-0.4,1.4-1.4,1.3-3C36.4,27.6,35.3,26.6,34.9,26.1z"/>
</svg>
