<?xml version="1.0" encoding="utf-8"?>
<!-- Generator: Adobe Illustrator 23.0.1, SVG Export Plug-In . SVG Version: 6.00 Build 0)  -->
<svg version="1.1" id="Layer_1" xmlns="http://www.w3.org/2000/svg" xmlns:xlink="http://www.w3.org/1999/xlink" x="0px" y="0px"
	 viewBox="0 0 122.8 110.6" style="enable-background:new 0 0 122.8 110.6;" xml:space="preserve">
<style type="text/css">
	.st0{fill:#4B4B4B;}
</style>
<path class="st0" d="M47.5,42.7L46,41.2c-4-4-8.1-8.1-12.1-12.1c2.3-2.3,4.7-4.6,7-7l6.7-6.7c0.7-0.7,1.1-1.5,1.1-2.4
	c0-0.7-0.3-1.4-0.8-1.9c-0.3-0.3-0.9-0.8-1.8-0.8c-0.8,0-1.5,0.4-2.3,1.1L30.3,25.1L16.7,11.6c-0.2-0.2-0.4-0.4-0.6-0.6
	c-1.1-0.8-2.4-0.8-3.3,0.1c-1,0.9-1.2,2.4-0.5,3.5c0.2,0.4,0.5,0.7,0.8,0.9l1,1c4.2,4.2,8.4,8.4,12.6,12.6c-2.3,2.3-4.6,4.5-6.8,6.8
	l-6.8,6.9c-0.7,0.7-1.1,1.5-1.1,2.4c0,0.7,0.3,1.4,0.8,1.9c0.3,0.3,0.9,0.8,1.8,0.8c0.8,0,1.5-0.4,2.3-1.1l13.5-13.5l13.5,13.5
	c0.2,0.2,0.4,0.4,0.6,0.6c1.1,0.8,2.4,0.8,3.3-0.1c1-0.9,1.2-2.4,0.5-3.5C48.1,43.3,47.8,43,47.5,42.7z"/>
</svg>
