<?xml version="1.0" encoding="utf-8"?>
<!-- Generator: Adobe Illustrator 23.0.1, SVG Export Plug-In . SVG Version: 6.00 Build 0)  -->
<svg version="1.1" id="Layer_1" xmlns="http://www.w3.org/2000/svg" xmlns:xlink="http://www.w3.org/1999/xlink" x="0px" y="0px"
	 viewBox="0 0 122.8 110.6" style="enable-background:new 0 0 122.8 110.6;" xml:space="preserve">
<style type="text/css">
	.st0{fill:#CC3DC0;}
</style>
<g id="iSiFC1.tif">
	<g>
		<path class="st0" d="M47.2,41c0-1.4,0-2.9,0-4.3c0-1.1-0.5-1.5-1.6-1.5c-0.8,0-1.6,0-2.3,0c-1.1,0-1.6-0.6-1.6-1.5
			c0-0.8,0.6-1.3,1.6-1.3c0.9,0,1.8,0,2.7,0c1.6,0,2.8,0.8,3.5,2.2c0.3,0.5,0.6,0.6,1.1,0.6c1.6,0,3.2,0,4.8,0.1
			c3.3,0.4,5.9,3.4,5.9,6.8c0,1.9,0,3.8,0,5.7c0,2.3-1.7,4.1-4,4.2c-0.9,0.1-1.9,0-2.8,0.1c-0.4,0-0.8,0.3-1,0.5
			c-2.1,3-6.1,3-8.2,0.1C45,52.2,44.6,52,44.1,52c-1.6,0-3.3,0-4.9,0c-0.5,0-0.9,0.1-1.2,0.6c-2.1,3-6.1,3-8.2,0
			c-0.2-0.3-0.6-0.6-1-0.6c-2.5-0.3-3.9-1.8-4-4.3c0-1.7,0-3.5,0-5.2c0-1.1,0.5-1.7,1.4-1.7c0.8,0,1.4,0.7,1.4,1.7c0,1.7,0,3.3,0,5
			c0,0.4,0.1,0.8,0.3,1.1c0.2,0.3,0.6,0.4,0.9,0.5c0.1-0.2,0.3-0.5,0.4-0.7c0.7-2,2.6-3.4,4.7-3.4s4.1,1.4,4.7,3.5
			c0.2,0.6,0.4,0.8,1,0.8c1.4,0,2.8,0,4.2,0c0.5,0,0.8-0.1,0.9-0.7c0.3-1.2,1.1-2.1,2-2.8c0.3-0.2,0.5-0.7,0.5-1
			C47.3,43.5,47.3,42.2,47.2,41C47.3,41,47.2,41,47.2,41z M50.1,38.1c0,2,0,4,0,5.9c0,0.2-0.1,0.5,0,0.6c0.1,0.2,0.4,0.5,0.6,0.6
			c1.3,0.4,2.6,1.1,2.9,2.4c0.5,1.8,1.6,1.8,3,1.6h0.1c1.3,0,1.8-0.5,1.8-1.8c0-1,0-2,0-3.1c0-0.6-0.2-0.8-0.8-0.8
			c-1.1,0-2.1,0-3.2,0c-1,0-1.6-0.6-1.6-1.4c0-0.8,0.6-1.4,1.6-1.4c0.3,0,0.6,0,0.9,0c0.9,0,1.8,0,2.8,0c-0.7-1.5-1.7-2.5-3.1-2.7
			C53.5,37.9,51.9,38.1,50.1,38.1z M35.9,50c0-1.1-0.8-2.1-1.9-2.1c-1.2-0.1-2.1,0.8-2.2,2s0.8,2.1,2,2.2C35,52.1,35.9,51.2,35.9,50
			z M47.3,49.9c0,1.3,0.9,2.2,2.1,2.2c1.1,0,2-0.9,2.1-2c0-1.2-0.9-2.1-2-2.1C48.2,47.9,47.3,48.7,47.3,49.9z"/>
		<path class="st0" d="M41.6,25.3C41.5,32.4,35.9,38,28.9,38c-6.9,0-13-6-12.7-13.3c0.3-6.2,5.6-12.2,12.8-12.1
			C36.1,12.7,41.7,18.3,41.6,25.3z M19.1,25.3c0,5.5,4.6,9.9,9.8,9.9c5.3,0,9.9-4.4,9.9-9.9c0-5.4-4.4-9.8-9.8-9.8
			C23.5,15.4,19.1,19.8,19.1,25.3z"/>
		<path class="st0" d="M27.5,23.9c0-1.2,0-2.2,0-3.3c0-1,0.5-1.6,1.4-1.7c0.8,0,1.4,0.6,1.4,1.6c0,1.5,0,3.1,0,4.6
			c0,1.1-0.6,1.6-1.7,1.6c-1.5,0-3,0-4.4,0c-1.1,0-1.7-0.6-1.7-1.4s0.6-1.4,1.7-1.4C25.3,23.8,26.4,23.9,27.5,23.9z"/>
	</g>
</g>
</svg>
