<?xml version="1.0" encoding="utf-8"?>
<!-- Generator: Adobe Illustrator 23.0.1, SVG Export Plug-In . SVG Version: 6.00 Build 0)  -->
<svg version="1.1" id="Layer_1" xmlns="http://www.w3.org/2000/svg" xmlns:xlink="http://www.w3.org/1999/xlink" x="0px" y="0px"
	 viewBox="0 0 122.8 110.6" style="enable-background:new 0 0 122.8 110.6;" xml:space="preserve">
<style type="text/css">
	.st0{fill:#FF7A7A;}
</style>
<path class="st0" d="M13.7,30.5c0.5,1.1,1.3,2.1,2,3c0.7,0.8,1.4,1.5,2.2,2.3c3.8,3.7,7.6,7.4,11.4,11c0.5,0.5,1.2,0.5,1.6,0.2
	c0.1-0.1,0.2-0.2,0.3-0.3c3.7-3.6,7.5-7.2,11.2-10.8c1-0.9,1.9-1.9,2.7-2.9c1-1.3,1.8-2.6,2.3-4.1c0.2-0.7,0.4-1.4,0.4-2.2v-0.1
	c0-0.4,0-0.8,0-1.2c0-0.3-0.1-0.6-0.1-0.9c-0.2-1.9-0.9-3.6-2.2-5c-1.1-1.2-2.5-1.9-4.1-2.3c-1.2-0.3-2.4-0.4-3.6-0.3
	c-1.1,0.1-2,0.4-3,0.8c-0.9,0.4-1.7,1-2.6,1.6c-0.7,0.5-1.4,1.1-2,1.7l-0.1,0.1c-0.4-0.3-0.7-0.7-1.1-1c-1-0.9-2.1-1.7-3.4-2.3
	c-1.6-0.8-3.2-1.1-4.9-0.9c-1,0.1-2.1,0.3-3,0.7c-2.6,1-4.2,2.9-4.9,5.5c-0.3,1.3-0.4,2.7-0.3,4C12.8,28.3,13.2,29.4,13.7,30.5z"/>
</svg>
