<?xml version="1.0" encoding="utf-8"?>
<!-- Generator: Adobe Illustrator 23.0.1, SVG Export Plug-In . SVG Version: 6.00 Build 0)  -->
<svg version="1.1" id="Layer_1" xmlns="http://www.w3.org/2000/svg" xmlns:xlink="http://www.w3.org/1999/xlink" x="0px" y="0px"
	 viewBox="0 0 122.8 110.6" style="enable-background:new 0 0 122.8 110.6;" xml:space="preserve">
<style type="text/css">
	.st0{fill:#4B4B4B;}
</style>
<g>
	<path class="st0" d="M47.5,32.2c-0.1-0.8-0.8-1.3-1.7-1.3c-1.4,0-2.9,0-4.3,0l0,0c-0.1,0-0.2,0-0.2,0s0-0.1,0-0.2
		c-0.8-6.1-5.8-11.2-11.9-12c-0.1,0-0.2,0-0.2,0s0-0.1,0-0.2c0-1.4,0-2.8,0-4.2c0-1-0.8-1.8-1.7-1.8l0,0c-1,0-1.7,0.8-1.7,1.8
		c0,0.5,0,1,0,1.5v2.1c0,0.3,0,0.7,0,0.7c-0.1,0.1-0.4,0.1-0.7,0.2c-0.1,0-0.3,0.1-0.4,0.1L24.2,19c-5.2,1-10,6.2-10.7,11.4
		c0,0.2,0,0.4-0.1,0.5c-0.1,0-0.3,0-0.5,0c-0.4,0-0.7,0-1.1,0c-1,0-2,0-3,0.1c-0.6,0-1.3,0.5-1.6,1.1c-0.2,0.6,0,1.4,0.4,1.8
		c0.4,0.5,1.1,0.5,1.5,0.6c1.4,0,2.7,0,4,0l0,0c0.1,0,0.1,0,0.1,0v0.1c0.3,3,1.7,5.7,3.9,8c2.2,2.2,4.8,3.6,7.7,4h0.3
		c0.1,0,0.1,0,0.2,0c0,0.1,0,0.3,0,0.5v1.1c0,1,0,1.9,0,2.9c0,0.8,0.4,1.4,1.1,1.7c0.2,0.1,0.4,0.1,0.6,0.1c0.4,0,0.7-0.1,1-0.4
		c0.5-0.4,0.7-1.1,0.7-1.7c0.1-1.2,0-2.4,0-3.6v-0.6v-0.1h0.1c6-0.6,11.4-6,12-11.9c0-0.2,0-0.2,0-0.2s0.1,0,0.2,0c1.5,0,2.8,0,4,0
		c0.2,0,1.1-0.1,1.5-0.6C47.4,33.5,47.6,32.8,47.5,32.2z M37.9,32.7L37.9,32.7c0.2,6-5.1,10.3-10,10.5c-6.2,0.2-10.7-5.1-10.9-10
		c-0.1-2.8,0.9-5.4,2.8-7.5s4.6-3.4,7.3-3.5c0.1,0,0.2,0,0.4,0c2.8,0,5.6,1.2,7.6,3.3C36.9,27.5,38,30.1,37.9,32.7z"/>
	<path class="st0" d="M27.4,26c-1.8,0-3.5,0.7-4.7,1.9c-1.3,1.3-2,2.9-2,4.7s0.7,3.5,2,4.8c1.2,1.2,2.9,1.9,4.6,1.9h0.1
		c3.7-0.1,6.6-3,6.6-6.7C34.1,29,31.2,26.1,27.4,26z M30.5,32.8c0,1.7-1.4,3.1-3.2,3.1c-0.8,0-1.6-0.4-2.2-1s-0.9-1.4-0.9-2.2
		s0.4-1.7,1-2.2s1.3-0.8,2.1-0.8h0.1C29.2,29.6,30.6,31.1,30.5,32.8z"/>
</g>
</svg>
