<?xml version="1.0" encoding="utf-8"?>
<!-- Generator: Adobe Illustrator 23.0.1, SVG Export Plug-In . SVG Version: 6.00 Build 0)  -->
<svg version="1.1" id="Layer_1" xmlns="http://www.w3.org/2000/svg" xmlns:xlink="http://www.w3.org/1999/xlink" x="0px" y="0px"
	 viewBox="0 0 122.8 110.6" style="enable-background:new 0 0 122.8 110.6;" xml:space="preserve">
<style type="text/css">
	.st0{fill:#FFFFFF;}
</style>
<g>
	<path class="st0" d="M70.6,47.6c-0.3-0.2-0.6-0.3-0.9-0.4c0.7-0.3,1.3-0.8,1.6-1.4c0.4-0.6,0.6-1.4,0.6-2.2c0-1.6-0.4-2.8-1.3-3.6
		c-0.8-0.8-2.1-1.2-3.8-1.2h-6.6c-0.1,0-0.1,0-0.2,0c-0.7,0-6.9,0-7.6,0c-2.2,0.2-3.8,1.3-4.5,3.4c-0.5,1.4-0.8,2.9-1.2,4.3
		c-1.5,5.7-3,11.4-4.6,17.1c-0.3,1-0.6,1.3-1.5,1.3c-6.2,0-12.4,0-18.7,0c-0.8,0-1.3-0.3-1.5-1.1c-0.4-1.3-0.8-2.6-1.2-4
		c-0.9-3.1-1.8-6.3-2.8-9.4c-0.3-1-1-1.5-1.8-1.2c-0.7,0.2-1.1,1-0.8,1.8c1.4,4.6,2.8,9.2,4.1,13.8c0.4,1.5,2.1,2.9,3.8,2.8
		c0.1,0,0.2,0,0.4,0c-1.4,0.8-2.4,2.2-2.4,4c0,2.5,2.1,4.6,4.5,4.6c2.6,0,4.7-2,4.7-4.6c0-1.8-1-3.3-2.4-4.1c1.6,0,3.1,0,4.7,0
		c1.4,0,2.8,0,4.1,0c-1.3,0.8-2.3,2.2-2.3,4c0,2.5,2,4.6,4.5,4.7c2.6,0,4.7-2,4.7-4.6c0-1.8-1-3.3-2.4-4c0.3,0,0.6,0,0.9,0
		c2.1,0,3.4-1,4-3c0.4-1.5,0.8-3.1,1.3-4.6c1.4-5.4,2.9-10.8,4.3-16.2c0.5-1.7,1.4-2.4,3.2-2.4c0.3,0,3.2,0,5,0v14.5
		c0,0.5,0.2,0.9,0.5,1.2s0.7,0.5,1.2,0.5h6.7c0.7,0,1.3-0.1,2.1-0.2c0.7-0.2,1.4-0.4,2-0.8c0.6-0.4,1.1-1,1.5-1.7
		c0.4-0.8,0.6-1.7,0.6-2.9c0-1.1-0.2-2-0.7-2.6C71.8,48.5,71.2,48,70.6,47.6z M24.4,73.5c-1.1,0-2-0.9-1.9-2c0-1.1,0.9-1.9,2-1.9
		s1.9,0.9,1.9,1.9C26.3,72.6,25.5,73.5,24.4,73.5z M37.5,73.5c-1,0-1.9-1-1.9-2c0-1.1,0.9-2,2-1.9c1.1,0,2,0.9,1.9,2
		C39.5,72.6,38.6,73.5,37.5,73.5z M67.8,42.5c0.4,0.3,0.6,0.9,0.6,1.7c0,0.6-0.2,1.1-0.6,1.5c-0.4,0.3-0.9,0.5-1.4,0.5h-4.5V42h4.4
		C67,41.9,67.5,42.1,67.8,42.5z M68.7,53.8c-0.5,0.4-1.1,0.7-2,0.7h-4.8v-5.2h4.6c0.4,0,0.8,0,1.2,0.1c0.4,0.1,0.8,0.3,1.2,0.7
		c0.3,0.4,0.5,0.9,0.5,1.7C69.4,52.7,69.2,53.3,68.7,53.8z"/>
	<path class="st0" d="M89.3,38.7c-0.5,0-0.8,0.2-1.1,0.5c-0.3,0.3-0.4,0.7-0.4,1.2v9.7c0,0.9-0.2,1.7-0.6,2.3
		c-0.4,0.7-0.9,1.2-1.6,1.5c-0.7,0.4-1.4,0.5-2.1,0.5s-1.4-0.2-2-0.5c-0.6-0.4-1.1-0.9-1.5-1.5c-0.4-0.7-0.6-1.4-0.6-2.3v-9.7
		c0-0.5-0.2-0.9-0.5-1.2s-0.7-0.5-1.1-0.5c-0.5,0-0.9,0.2-1.2,0.5c-0.3,0.3-0.5,0.7-0.5,1.2v9.7c0,1.5,0.3,2.8,1,3.9
		c0.6,1.1,1.5,2,2.6,2.7c1.1,0.6,2.4,1,3.9,1s2.7-0.3,3.9-1c1.1-0.6,2-1.5,2.6-2.7c0.6-1.1,1-2.5,1-3.9v-9.7c0-0.5-0.1-0.9-0.4-1.2
		C90.1,38.9,89.7,38.7,89.3,38.7z"/>
	<path class="st0" d="M107.6,39.2c-0.3-0.3-0.7-0.5-1.1-0.5c-0.5,0-1,0.3-1.3,0.8l-4.4,6.5l-4.7-6.5c-0.4-0.5-0.8-0.8-1.3-0.8
		c-0.4,0-0.8,0.2-1.2,0.5c-0.4,0.3-0.6,0.7-0.6,1.2c0,0.2,0,0.4,0.1,0.6c0.1,0.2,0.2,0.4,0.4,0.7l5.6,7.4V56c0,0.5,0.2,0.9,0.5,1.2
		s0.7,0.5,1.1,0.5s0.8-0.2,1.1-0.5c0.3-0.3,0.5-0.7,0.5-1.2v-6.5l5.6-8c0.1-0.2,0.2-0.3,0.2-0.5s0.1-0.3,0.1-0.5
		C108.1,39.9,108,39.5,107.6,39.2z"/>
	<path class="st0" d="M41.5,35c0.3,0,0.5-0.1,0.7-0.3s0.3-0.4,0.3-0.7V20.2l10.9,14.5c0.1,0.1,0.2,0.2,0.4,0.3c0.2,0,0.4,0,0.5,0
		c0.3,0,0.6-0.1,0.8-0.3s0.3-0.5,0.3-0.8V17.3c0-0.3-0.1-0.5-0.3-0.7s-0.4-0.3-0.7-0.3s-0.5,0.1-0.7,0.3c-0.2,0.2-0.3,0.4-0.3,0.7
		v13.9l-11-14.5c-0.1-0.1-0.2-0.2-0.4-0.3c-0.2-0.1-0.3-0.1-0.5-0.1c-0.3,0-0.5,0.1-0.8,0.3c-0.2,0.2-0.3,0.5-0.3,0.8V34
		c0,0.3,0.1,0.5,0.3,0.7C41,34.9,41.2,35,41.5,35z"/>
	<path class="st0" d="M61.2,35h9.5c0.3,0,0.6-0.1,0.8-0.3c0.2-0.2,0.3-0.4,0.3-0.8c0-0.3-0.1-0.5-0.3-0.7c-0.2-0.2-0.5-0.3-0.8-0.3
		h-8.4v-6.5h7.2c0.3,0,0.6-0.1,0.8-0.3c0.2-0.2,0.3-0.4,0.3-0.7c0-0.3-0.1-0.6-0.3-0.8c-0.2-0.2-0.5-0.3-0.8-0.3h-7.2v-6h8.4
		c0.3,0,0.6-0.1,0.8-0.3c0.2-0.2,0.3-0.4,0.3-0.7c0-0.3-0.1-0.6-0.3-0.8c-0.2-0.2-0.5-0.3-0.8-0.3h-9.5c-0.3,0-0.6,0.1-0.8,0.3
		c-0.2,0.2-0.3,0.5-0.3,0.8v16.6c0,0.3,0.1,0.6,0.3,0.8C60.6,34.9,60.9,35,61.2,35z"/>
	<path class="st0" d="M85.8,30l1.8,4.3c0.1,0.2,0.2,0.4,0.4,0.5c0.2,0.1,0.4,0.2,0.6,0.2c0.3,0,0.5-0.1,0.7-0.3s0.3-0.5,0.3-0.8
		c0-0.1,0-0.3-0.1-0.4l-6.9-16.7c-0.1-0.2-0.2-0.4-0.4-0.5c-0.2-0.1-0.4-0.2-0.6-0.2s-0.4,0-0.6,0.2c-0.2,0.1-0.3,0.3-0.4,0.6
		l-6.9,16.8c0,0.1-0.1,0.3-0.1,0.4c0,0.3,0.1,0.5,0.3,0.7c0.2,0.2,0.4,0.3,0.7,0.3c0.2,0,0.4-0.1,0.6-0.2c0.2-0.1,0.3-0.3,0.4-0.5
		l1.8-4.4C77.4,30,85.8,30,85.8,30z M81.6,19.8l3.4,8.1h-6.7L81.6,19.8z"/>
	<path class="st0" d="M94.6,34.7c0.2-0.2,0.3-0.5,0.3-0.8v-6.5h5.7c0.4,0,0.8,0,1.2,0.1c0.4,0.1,0.7,0.3,1,0.5s0.5,0.5,0.7,0.9
		s0.3,0.9,0.3,1.4c0,1,0.1,1.8,0.3,2.4c0.2,0.6,0.4,1,0.7,1.4c0.3,0.3,0.5,0.5,0.8,0.7c0.2,0.1,0.3,0.1,0.5,0.2c0.2,0,0.4,0,0.6-0.1
		s0.3-0.2,0.5-0.4s0.2-0.5,0.1-0.8s-0.2-0.5-0.5-0.6c-0.2-0.1-0.3-0.3-0.5-0.5c-0.1-0.2-0.2-0.5-0.2-0.9c-0.1-0.4-0.1-0.9-0.1-1.6
		c0-0.8-0.2-1.4-0.5-2s-0.7-1-1.2-1.4c-0.2-0.2-0.5-0.3-0.8-0.5c0.5-0.2,1-0.5,1.5-0.9c0.5-0.5,0.9-1,1.2-1.7
		c0.3-0.7,0.4-1.4,0.4-2.1c0-1-0.2-1.9-0.7-2.7c-0.5-0.8-1.1-1.4-1.9-1.9s-1.7-0.7-2.7-0.7h-7.4c-0.3,0-0.6,0.1-0.8,0.3
		c-0.2,0.2-0.3,0.5-0.3,0.8v16.6c0,0.3,0.1,0.6,0.4,0.8s0.5,0.3,0.9,0.3C94.2,35,94.4,34.9,94.6,34.7z M103.2,19.3
		c0.6,0.6,0.9,1.4,0.9,2.3c0,0.8-0.1,1.4-0.4,2s-0.7,1-1.1,1.3c-0.5,0.3-0.9,0.5-1.5,0.5h-6.2v-7.1h6.1
		C101.9,18.4,102.6,18.7,103.2,19.3z"/>
	<path class="st0" d="M22.2,50c0.3,0.6,0.7,1.1,1.1,1.6c0.4,0.4,0.8,0.8,1.2,1.2c2,2,4.1,3.9,6.1,5.9c0.3,0.3,0.6,0.2,0.8,0.1
		c0.1,0,0.1-0.1,0.2-0.1c2-1.9,4-3.8,5.9-5.7c0.5-0.5,1-1,1.5-1.5c0.5-0.7,1-1.4,1.2-2.2c0.1-0.4,0.2-0.8,0.2-1.2V48
		c0-0.2,0-0.4,0-0.6c0-0.2,0-0.3,0-0.5c-0.1-1-0.5-1.9-1.2-2.7c-0.6-0.6-1.3-1-2.2-1.2c-0.6-0.2-1.3-0.2-1.9-0.2
		c-0.6,0-1.1,0.2-1.6,0.4s-0.9,0.5-1.4,0.9c-0.4,0.3-0.7,0.6-1,0.9c0,0,0,0-0.1,0.1c-0.2-0.2-0.4-0.4-0.6-0.5
		c-0.6-0.5-1.1-0.9-1.8-1.2c-0.8-0.4-1.7-0.6-2.6-0.5c-0.6,0.1-1.1,0.1-1.6,0.4c-1.4,0.5-2.2,1.5-2.6,2.9c-0.2,0.7-0.2,1.4-0.1,2.1
		C21.7,48.8,21.9,49.4,22.2,50z"/>
</g>
</svg>
