<?xml version="1.0" encoding="utf-8"?>
<!-- Generator: Adobe Illustrator 23.0.1, SVG Export Plug-In . SVG Version: 6.00 Build 0)  -->
<svg version="1.1" id="Layer_1" xmlns="http://www.w3.org/2000/svg" xmlns:xlink="http://www.w3.org/1999/xlink" x="0px" y="0px"
	 viewBox="0 0 122.8 110.6" style="enable-background:new 0 0 122.8 110.6;" xml:space="preserve">
<style type="text/css">
	.st0{fill:#FF7A7A;}
</style>
<g>
	<path class="st0" d="M65.9,50.7c-0.3-0.2-0.6-0.3-0.9-0.4c0.7-0.3,1.3-0.8,1.6-1.4c0.4-0.6,0.6-1.4,0.6-2.2c0-1.6-0.4-2.8-1.3-3.6
		c-0.8-0.8-2.1-1.2-3.8-1.2h-6.6c-0.1,0-0.1,0-0.2,0c-0.7,0-6.9,0-7.6,0c-2.2,0.2-3.8,1.3-4.5,3.4c-0.5,1.4-0.8,2.9-1.2,4.3
		c-1.5,5.7-3,11.4-4.6,17.1c-0.3,1-0.6,1.3-1.5,1.3c-6.2,0-12.4,0-18.7,0c-0.8,0-1.3-0.3-1.5-1.1c-0.4-1.3-0.8-2.6-1.2-4
		c-0.9-3.1-1.8-6.3-2.8-9.4c-0.3-1-1-1.5-1.8-1.2c-0.7,0.2-1.1,1-0.8,1.8c1.4,4.6,2.8,9.2,4.1,13.8c0.4,1.5,2.1,2.9,3.8,2.8
		c0.1,0,0.2,0,0.4,0c-1.4,0.8-2.4,2.2-2.4,4c0,2.5,2.1,4.6,4.5,4.6c2.6,0,4.7-2,4.7-4.6c0-1.8-1-3.3-2.4-4.1c1.6,0,3.1,0,4.7,0
		c1.4,0,2.8,0,4.1,0c-1.4,0.8-2.4,2.2-2.4,3.9c0,2.5,2,4.6,4.5,4.7c2.6,0,4.7-2,4.7-4.6c0-1.8-1-3.3-2.4-4c0.3,0,0.6,0,0.9,0
		c2.1,0,3.4-1,4-3c0.4-1.5,0.8-3.1,1.3-4.6c1.4-5.4,2.9-10.8,4.3-16.2c0.5-1.7,1.4-2.4,3.2-2.4c0.3,0,3.2,0,5,0V59
		c0,0.5,0.2,0.9,0.5,1.2s0.7,0.5,1.2,0.5h6.7c0.7,0,1.3-0.1,2.1-0.2c0.7-0.2,1.4-0.4,2-0.8c0.6-0.4,1.1-1,1.5-1.7
		c0.4-0.8,0.6-1.7,0.6-2.9c0-1.1-0.2-2-0.7-2.6C67.2,51.6,66.6,51.1,65.9,50.7z M19.8,76.6c-1.1,0-2-0.9-1.9-2c0-1.1,0.9-1.9,2-1.9
		s1.9,0.9,1.9,1.9C21.7,75.8,20.8,76.6,19.8,76.6z M32.9,76.6c-1,0-1.9-1-1.9-2c0-1.1,0.9-2,2-1.9c1.1,0,2,0.9,1.9,2
		C34.9,75.8,33.9,76.7,32.9,76.6z M63.2,45.6c0.4,0.3,0.6,0.9,0.6,1.7c0,0.6-0.2,1.1-0.6,1.5c-0.4,0.3-0.9,0.5-1.4,0.5h-4.5v-4.2
		h4.4C62.3,45.1,62.8,45.2,63.2,45.6z M64.1,56.9c-0.5,0.4-1.1,0.7-2,0.7h-4.8v-5.2h4.6c0.4,0,0.8,0,1.2,0.1s0.8,0.3,1.2,0.7
		c0.3,0.4,0.5,0.9,0.5,1.7C64.8,55.8,64.5,56.5,64.1,56.9z"/>
	<path class="st0" d="M84.6,41.9c-0.5,0-0.8,0.2-1.1,0.5c-0.3,0.3-0.4,0.7-0.4,1.2v9.7c0,0.9-0.2,1.7-0.6,2.3
		c-0.4,0.7-0.9,1.2-1.6,1.5c-0.7,0.4-1.4,0.5-2.1,0.5s-1.4-0.2-2-0.5c-0.6-0.4-1.1-0.9-1.5-1.5c-0.4-0.7-0.6-1.4-0.6-2.3v-9.7
		c0-0.5-0.2-0.9-0.5-1.2s-0.7-0.5-1.1-0.5c-0.5,0-0.9,0.2-1.2,0.5c-0.3,0.3-0.5,0.7-0.5,1.2v9.7c0,1.5,0.3,2.8,1,3.9
		c0.6,1.1,1.5,2,2.6,2.7c1.1,0.6,2.4,1,3.9,1s2.7-0.3,3.9-1c1.1-0.6,2-1.5,2.6-2.7c0.6-1.1,1-2.5,1-3.9v-9.7c0-0.5-0.1-0.9-0.4-1.2
		C85.5,42,85.1,41.9,84.6,41.9z"/>
	<path class="st0" d="M103,42.3c-0.3-0.3-0.7-0.5-1.1-0.5c-0.5,0-1,0.3-1.3,0.8l-4.4,6.5l-4.7-6.5c-0.4-0.5-0.8-0.8-1.3-0.8
		c-0.4,0-0.8,0.2-1.2,0.5c-0.4,0.3-0.6,0.7-0.6,1.2c0,0.2,0,0.4,0.1,0.6c0.1,0.2,0.2,0.4,0.4,0.7l5.6,7.4V59c0,0.5,0.2,0.9,0.5,1.2
		s0.7,0.5,1.1,0.5s0.8-0.2,1.1-0.5c0.3-0.3,0.5-0.7,0.5-1.2v-6.5l5.6-8c0.1-0.2,0.2-0.3,0.2-0.5s0.1-0.3,0.1-0.5
		C103.5,43,103.3,42.6,103,42.3z"/>
	<path class="st0" d="M36.9,38.2c0.3,0,0.5-0.1,0.7-0.3s0.3-0.4,0.3-0.7V23.4l10.9,14.5c0.1,0.1,0.2,0.2,0.4,0.3s0.3,0.1,0.5,0.1
		c0.3,0,0.6-0.1,0.8-0.3s0.3-0.5,0.3-0.8V20.4c0-0.3-0.1-0.5-0.3-0.7s-0.4-0.3-0.7-0.3s-0.5,0.1-0.7,0.3c-0.2,0.2-0.3,0.4-0.3,0.7
		v13.9l-11-14.5c-0.1-0.1-0.2-0.2-0.4-0.3c-0.2-0.1-0.3-0.1-0.5-0.1c-0.3,0-0.5,0.1-0.8,0.3c-0.2,0.2-0.3,0.5-0.3,0.8v16.7
		c0,0.3,0.1,0.5,0.3,0.7C36.4,38.1,36.6,38.2,36.9,38.2z"/>
	<path class="st0" d="M56.6,38.2h9.5c0.3,0,0.6-0.1,0.8-0.3c0.2-0.2,0.3-0.4,0.3-0.8c0-0.3-0.1-0.5-0.3-0.7
		c-0.2-0.2-0.5-0.3-0.8-0.3h-8.4v-6.5h7.2c0.3,0,0.6-0.1,0.8-0.3c0.2-0.2,0.3-0.4,0.3-0.7c0-0.3-0.1-0.6-0.3-0.8
		c-0.2-0.2-0.5-0.3-0.8-0.3h-7.2v-6h8.4c0.3,0,0.6-0.1,0.8-0.3c0.2-0.2,0.3-0.4,0.3-0.7c0-0.3-0.1-0.6-0.3-0.8
		c-0.2-0.2-0.5-0.3-0.8-0.3h-9.5c-0.3,0-0.6,0.1-0.8,0.3c-0.2,0.2-0.3,0.5-0.3,0.8v16.6c0,0.3,0.1,0.6,0.3,0.8
		C56,38.1,56.3,38.2,56.6,38.2z"/>
	<path class="st0" d="M81.2,33.2l1.8,4.3c0.1,0.2,0.2,0.4,0.4,0.5c0.2,0.1,0.4,0.2,0.6,0.2c0.3,0,0.5-0.1,0.7-0.3s0.3-0.5,0.3-0.8
		c0-0.1,0-0.3-0.1-0.4L78,20c-0.1-0.2-0.2-0.4-0.4-0.5c-0.2-0.1-0.4-0.2-0.6-0.2s-0.4,0-0.6,0.2c-0.2,0.1-0.3,0.3-0.4,0.6l-6.9,16.8
		c0,0.1-0.1,0.3-0.1,0.4c0,0.3,0.1,0.5,0.3,0.7c0.2,0.2,0.4,0.3,0.7,0.3c0.2,0,0.4-0.1,0.6-0.2c0.2-0.1,0.3-0.3,0.4-0.5l1.8-4.4
		H81.2z M76.9,22.9l3.4,8.1h-6.7L76.9,22.9z"/>
	<path class="st0" d="M90,37.8c0.2-0.2,0.3-0.5,0.3-0.8v-6.5H96c0.4,0,0.8,0,1.2,0.1c0.4,0.1,0.7,0.3,1,0.5s0.5,0.5,0.7,0.9
		c0.2,0.4,0.3,0.9,0.3,1.4c0,1,0.1,1.8,0.3,2.4c0.2,0.6,0.4,1,0.7,1.4c0.3,0.3,0.5,0.5,0.8,0.7c0.2,0.1,0.3,0.1,0.5,0.2
		c0.2,0,0.4,0,0.6-0.1s0.3-0.2,0.5-0.4s0.2-0.5,0.1-0.8s-0.2-0.5-0.5-0.6c-0.2-0.1-0.3-0.3-0.5-0.5c-0.1-0.2-0.2-0.5-0.2-0.9
		c-0.1-0.4-0.1-0.9-0.1-1.6c0-0.8-0.2-1.4-0.5-2s-0.7-1-1.2-1.4c-0.2-0.2-0.5-0.3-0.8-0.5c0.5-0.2,1-0.5,1.5-0.9
		c0.5-0.5,0.9-1,1.2-1.7c0.3-0.7,0.4-1.4,0.4-2.1c0-1-0.2-1.9-0.7-2.7c-0.5-0.8-1.1-1.4-1.9-1.9s-1.7-0.7-2.7-0.7h-7.4
		c-0.3,0-0.6,0.1-0.8,0.3c-0.2,0.2-0.3,0.5-0.3,0.8V37c0,0.3,0.1,0.6,0.4,0.8s0.5,0.3,0.9,0.3C89.5,38.2,89.8,38.1,90,37.8z
		 M98.6,22.4c0.6,0.6,0.9,1.4,0.9,2.3c0,0.8-0.1,1.4-0.4,2s-0.7,1-1.1,1.3c-0.5,0.3-0.9,0.5-1.5,0.5h-6.2v-7.1h6.1
		C97.2,21.5,98,21.8,98.6,22.4z"/>
	<path class="st0" d="M17.6,53.1c0.3,0.6,0.7,1.1,1.1,1.6c0.4,0.4,0.8,0.8,1.2,1.2c2,2,4.1,3.9,6.1,5.9c0.3,0.3,0.6,0.2,0.8,0.1
		c0.1,0,0.1-0.1,0.2-0.1c2-1.9,4-3.8,5.9-5.7c0.5-0.5,1-1,1.5-1.5c0.5-0.7,1-1.4,1.2-2.2c0.1-0.4,0.2-0.8,0.2-1.2v-0.1
		c0-0.2,0-0.4,0-0.6c0-0.2,0-0.3,0-0.5c-0.1-1-0.5-1.9-1.2-2.7c-0.6-0.6-1.3-1-2.2-1.2c-0.6-0.2-1.3-0.2-1.9-0.2s-1.1,0.2-1.6,0.4
		s-0.9,0.5-1.4,0.9c-0.4,0.3-0.7,0.6-1,0.9c0,0,0,0-0.1,0.1c-0.2-0.2-0.4-0.4-0.6-0.5c-0.6-0.5-1.1-0.9-1.8-1.2
		c-0.8-0.4-1.7-0.6-2.6-0.5c-0.6,0.1-1.1,0.1-1.6,0.4c-1.4,0.5-2.2,1.5-2.6,2.9C17,50,17,50.7,17.1,51.4
		C17.1,52,17.3,52.6,17.6,53.1z"/>
</g>
</svg>
