<?xml version="1.0" encoding="utf-8"?>
<!-- Generator: Adobe Illustrator 23.0.1, SVG Export Plug-In . SVG Version: 6.00 Build 0)  -->
<svg version="1.1" id="Layer_1" xmlns="http://www.w3.org/2000/svg" xmlns:xlink="http://www.w3.org/1999/xlink" x="0px" y="0px"
	 viewBox="0 0 122.8 110.6" style="enable-background:new 0 0 122.8 110.6;" xml:space="preserve">
<style type="text/css">
	.st0{fill:#FF7A7A;}
</style>
<g id="h1aXJB.tif">
	<g>
		<path class="st0" d="M39.9,23.1c0,2.7,0.1,5.4,0,8.1c-0.3,4.4-3.1,7.6-7.5,8.1c-2.6,0.3-5.3,0.3-7.9,0c-4.5-0.5-7.4-3.7-7.5-8.2
			C16.8,25.5,16.9,20,17,14.4c0.1-4.3,4-7.8,8.3-7.8c1.8,0,3.6,0,5.4,0c5.3,0,9,3.6,9.1,8.9C39.9,18.1,39.9,20.6,39.9,23.1
			C39.9,23.1,39.9,23.1,39.9,23.1z M36.6,19.7c-1.6,0-3,0-4.5,0c-1.3,0-2.1-0.7-2.1-1.7c0-1,0.7-1.6,2-1.6c1.2,0,2.5,0,3.7,0
			c0.3,0,0.7-0.3,0.7-0.6c0.4-2.7-1.7-5.6-4.4-5.8c-2.4-0.2-4.7-0.2-7.1-0.1c-3,0.2-4.9,2.5-4.8,5.5c0,0.7,0.2,1,1,1
			c1.4,0,2.8,0,4.2,0.1c0.9,0.1,1.3,0.7,1.4,1.5c0.1,0.8-0.6,1.5-1.4,1.6c-0.4,0.1-0.7,0-1.1,0c-1.3,0-2.6,0-4,0c0,0.9,0,1.6,0,2.4
			c0,0.7,0.2,0.9,0.9,0.9c1.2,0,2.4,0,3.6,0c0.5,0,1,0.1,1.3,0.3c0.6,0.4,0.9,1,0.7,1.7c-0.2,0.8-0.8,1.2-1.7,1.2
			c-1.6,0-3.1,0-4.6,0c0,2-0.2,4,0.1,5.9c0.3,2.1,2.2,3.7,4.4,3.9c2.4,0.2,4.8,0.2,7.2,0c2.3-0.2,3.9-1.6,4.3-3.8
			c0.4-1.9,0.2-3.9,0.3-5.9c-0.6,0-0.9,0-1.2,0c-1.2,0-2.4,0-3.7,0c-1,0-1.7-0.7-1.7-1.6c0-0.9,0.6-1.5,1.6-1.6c0.3,0,0.6,0,0.8,0
			c1.1,0,2.2,0,3.3,0c0.3,0,0.7-0.3,0.8-0.5C36.7,21.6,36.6,20.7,36.6,19.7z"/>
		<path class="st0" d="M28.4,59.1c-2,0-4.1,0-6.1,0c-1.3,0-2-0.5-2-1.6c0-1.1,0.6-1.7,2-1.7c1.2,0,2.3,0,3.5,0c0.8,0,1.1-0.2,1.1-1
			c0-2.6,0-5.2,0-7.8c0-0.8-0.2-1.1-1.1-1c-5.3,0.2-9.5-2-12.7-6.3c-1.8-2.4-2.6-5.2-2.7-8.1c0-2.2,0-4.3,0-6.5c0-0.4,0-0.9,0.2-1.1
			c0.4-0.4,1-0.9,1.5-0.9c0.5,0,1,0.5,1.4,0.9c0.2,0.3,0.2,0.9,0.2,1.4c0,2.1,0,4.2,0.1,6.4c0.2,5.4,4,9.6,9.2,10.8
			c0.6,0.1,1.3,0.1,2,0.1c2.4,0,4.9,0.1,7.3,0c4.6-0.2,7.9-2.5,9.9-6.6c0.9-1.7,1.1-3.5,1.1-5.4c0-1.9,0-3.8,0-5.7
			c0-1.2,0.5-1.8,1.4-1.9c0.9-0.1,1.7,0.3,1.7,1.2c0.2,4.8,0.9,9.8-1.8,14.3c-3,4.9-7.3,7.5-13.1,7.5c-1.5,0-1.4-0.2-1.4,1.4
			c0,2.4,0,4.8,0,7.2c0,1.2,0,1.2,1.3,1.2c1.1,0,2.2,0,3.3,0c1.4,0,2,0.6,2,1.7c0,1-0.7,1.6-2,1.6C32.5,59.1,30.4,59.1,28.4,59.1z"
			/>
	</g>
</g>
</svg>
