<?xml version="1.0" encoding="utf-8"?>
<!-- Generator: Adobe Illustrator 23.0.1, SVG Export Plug-In . SVG Version: 6.00 Build 0)  -->
<svg version="1.1" id="Layer_1" xmlns="http://www.w3.org/2000/svg" xmlns:xlink="http://www.w3.org/1999/xlink" x="0px" y="0px"
	 viewBox="0 0 122.8 110.6" style="enable-background:new 0 0 122.8 110.6;" xml:space="preserve">
<style type="text/css">
	.st0{fill:#0018A2;}
</style>
<g id="_x31_Xeua5.tif">
	<g>
		<path class="st0" d="M17.2,32.8c0-4.6,0-9.2,0-13.8c0-4.3,2.6-6.9,6.9-6.9c4.4,0,8.7,0,13.1,0c1.3,0,2,0.5,2,1.4s-0.7,1.4-2,1.4
			c-4.4,0-8.8,0-13.2,0c-2.7,0-4.1,1.4-4.1,4.1c0,7.5,0,15.1,0,22.6c0,0.7,0.2,0.9,0.9,0.9c5.9,0,11.7,0,17.6,0c0.8,0,0.9-0.2,0.9-1
			c-0.1-1,0-2.1,0-3.1c0-0.8,0.6-1.4,1.4-1.4c0.8,0,1.3,0.5,1.3,1.3c0,3.1,0.1,6.2-0.1,9.4c-0.1,2.8-2.5,5.3-5.3,5.7
			c-0.4,0.1-0.9,0.1-1.3,0.1c-3.8,0-7.6,0-11.4,0c-3.6,0-6.1-2.5-6.5-5.1c-0.3-1.5-0.1-3.1-0.2-4.7C17.2,40,17.2,36.4,17.2,32.8
			L17.2,32.8z M29.6,45.1c-2.5,0-5.1,0-7.6,0c-2.3,0-2.3,0.1-2,2.4c0.3,1.7,1.5,3,3.2,3.1c4.3,0.1,8.6,0,12.8,0c1.3,0,2.3-0.8,2.8-2
			c0.3-0.8,0.3-1.8,0.5-2.7c0.1-0.7-0.2-0.8-0.8-0.8C35.5,45.1,32.5,45.1,29.6,45.1z"/>
		<path class="st0" d="M39.7,17.6c2.3,0,4.6,0,6.9,0c0.7,0,1.1-0.2,1.3-0.9c0.2-1,0.6-2.1,0.9-3.1c0.1-0.4,0.3-0.8,0.6-1.1
			c0.4-0.5,1-0.5,1.6-0.2c0.6,0.4,0.8,1,0.6,1.6c-0.4,1.3-0.7,2.5-1.1,3.8c-0.9,3.1-1.9,6.3-2.8,9.4c-0.4,1.2-0.7,1.5-2,1.5
			c-3.4,0-6.7,0-10.1,0c-1.3,0-1.5-0.2-1.9-1.4c-0.8-2.5-1.7-4.9-2.5-7.4c-0.5-1.4,0.1-2.2,1.6-2.2C35.1,17.5,37.4,17.6,39.7,17.6z
			 M46.7,20.4c-4.2,0-8.3,0-12.4,0c0.6,1.8,1.1,3.4,1.7,5.1c0.1,0.2,0.3,0.3,0.5,0.3c2.7,0,5.4,0,8.1,0c0.2,0,0.5-0.3,0.6-0.5
			C45.7,23.7,46.2,22.1,46.7,20.4z"/>
		<path class="st0" d="M35.7,30c1.1,0,2,0.9,2,2c0,1.1-0.9,2-2.1,2c-1.1,0-2-0.9-2-2C33.7,30.9,34.6,30,35.7,30z"/>
		<path class="st0" d="M45.4,34.1c-1.1,0-2.1-0.9-2.1-2c0-1.1,0.9-2,2-2s2.1,0.8,2.1,2C47.5,33.1,46.6,34.1,45.4,34.1z"/>
	</g>
</g>
</svg>
