<?xml version="1.0" encoding="utf-8"?>
<!-- Generator: Adobe Illustrator 23.0.1, SVG Export Plug-In . SVG Version: 6.00 Build 0)  -->
<svg version="1.1" id="Layer_1" xmlns="http://www.w3.org/2000/svg" xmlns:xlink="http://www.w3.org/1999/xlink" x="0px" y="0px"
	 viewBox="0 0 122.8 110.6" style="enable-background:new 0 0 122.8 110.6;" xml:space="preserve">
<style type="text/css">
	.st0{fill:#4B4B4B;}
</style>
<path class="st0" d="M54,50.1l-1.9-1.9c-2.5-2.5-5.1-5.1-7.6-7.6c-0.1-0.1-0.1-0.1-0.2-0.2c2.7-3.7,3.8-8,3.3-12.4
	c-0.5-4.3-2.7-8.2-5.9-10.8C35,11.7,25.6,12.1,19.3,18c-6.1,5.7-6.9,14.9-2,21.8c2.5,3.5,5.9,5.8,10.2,6.7c5,1,9.6,0,13.7-3.1
	l6.1,6.1c1.2,1.2,2.3,2.4,3.5,3.5c0.6,0.6,1.2,0.8,1.9,0.8c0.5,0,1-0.2,1.4-0.6C55.1,52.5,55.1,51.2,54,50.1z M43.4,30.3
	c-0.1,6.9-5.4,12.2-12.5,12.3c-7.1-0.2-12.4-5.5-12.3-12.5c0-3.4,1.3-6.6,3.6-8.9c2.3-2.2,5.4-3.5,8.7-3.5H31c3.4,0,6.5,1.3,8.8,3.6
	C42.2,23.8,43.4,26.9,43.4,30.3z"/>
</svg>
