<?xml version="1.0" encoding="utf-8"?>
<!-- Generator: Adobe Illustrator 23.0.1, SVG Export Plug-In . SVG Version: 6.00 Build 0)  -->
<svg version="1.1" id="Layer_1" xmlns="http://www.w3.org/2000/svg" xmlns:xlink="http://www.w3.org/1999/xlink" x="0px" y="0px"
	 viewBox="0 0 122.8 110.6" style="enable-background:new 0 0 122.8 110.6;" xml:space="preserve">
<style type="text/css">
	.st0{fill:#FE7B7A;}
	.st1{fill:#FFFFFF;}
</style>
<path class="st0" d="M46.1,27.6c0.5-9.2-6.3-17.5-15.7-18.9C18.8,7,8.7,15.6,8.7,26.6c0,6.7,8.1,21.1,8.1,21.1l8.8,14.5
	c0.7,1.6,3.1,1.6,3.9,0l10.3-17.7l0,0c0.4-0.8,3.3-6.5,5.3-11.6v-0.1C45.8,30.5,46,28.9,46.1,27.6z"/>
<path class="st1" d="M18.6,26.8c0.3,0.6,0.7,1.1,1.1,1.6c0.4,0.4,0.8,0.8,1.2,1.2c2,2,4.1,3.9,6.1,5.9c0.3,0.3,0.6,0.2,0.8,0.1
	c0.1,0,0.1-0.1,0.2-0.1c2-1.9,4-3.8,5.9-5.7c0.5-0.5,1-1,1.5-1.5c0.5-0.7,1-1.4,1.2-2.2c0.1-0.4,0.2-0.8,0.2-1.2v-0.1
	c0-0.2,0-0.4,0-0.6s0-0.3,0-0.5c-0.1-1-0.5-1.9-1.2-2.7c-0.6-0.6-1.3-1-2.2-1.2c-0.6-0.2-1.3-0.2-1.9-0.2s-1.1,0.2-1.6,0.4
	c-0.5,0.2-0.9,0.5-1.4,0.9c-0.4,0.3-0.7,0.6-1,0.9c0,0,0,0-0.1,0.1c-0.2-0.2-0.4-0.4-0.6-0.5c-0.6-0.5-1.1-0.9-1.8-1.2
	c-0.8-0.4-1.7-0.6-2.6-0.5c-0.6,0.1-1.1,0.1-1.6,0.4c-1.4,0.5-2.2,1.5-2.6,2.9c-0.2,0.7-0.2,1.4-0.1,2.1
	C18.1,25.7,18.4,26.3,18.6,26.8z"/>
</svg>
