<?xml version="1.0" encoding="utf-8"?>
<!-- Generator: Adobe Illustrator 23.0.1, SVG Export Plug-In . SVG Version: 6.00 Build 0)  -->
<svg version="1.1" id="Layer_1" xmlns="http://www.w3.org/2000/svg" xmlns:xlink="http://www.w3.org/1999/xlink" x="0px" y="0px"
	 viewBox="0 0 122.8 110.6" style="enable-background:new 0 0 122.8 110.6;" xml:space="preserve">
<style type="text/css">
	.st0{fill:#4B4B4B;}
</style>
<g id="n0HpLW.tif">
	<g>
		<path class="st0" d="M10.2,18.9c0-2.5,1.1-5,3.2-7.2c0.5-0.6,1.1-1.1,1.7-1.6c1.6-1.3,3.9-1.4,5.4-0.1c2.2,2,4.4,4.2,6.4,6.4
			c1.3,1.4,1.1,3.8-0.1,5.4c-1.1,1.4-1.1,1.9,0.2,3.2c2.6,2.6,5.1,5.1,7.7,7.7c1,1,1.7,1,2.7,0.2c2.1-1.7,4.4-1.6,6.3,0.2
			c1.8,1.7,3.5,3.4,5.2,5.2c2,2.1,1.9,4.6-0.1,6.7c-1.9,2-3.9,3.5-6.7,4c-2.9,0.5-5.5-0.1-7.8-1.7c-8.8-5.9-16.1-13.3-22.1-22
			C10.9,23.5,10.2,21.5,10.2,18.9z M40.1,46.2c2.6,0,4.6-1.3,6.3-3.1c1-1.1,1-1.8,0-2.9c-1.5-1.5-3.1-3.1-4.6-4.6
			c-1.1-1-1.7-1.1-2.8-0.2c-1.9,1.5-4.4,1.5-6.1-0.3c-2.9-2.8-5.8-5.7-8.6-8.6c-0.6-0.6-1-1.5-1.2-2.3c-0.4-1.4,0-2.7,1-3.9
			c0.8-0.9,0.8-1.7,0.1-2.4c-1.7-1.8-3.5-3.6-5.3-5.3c-0.6-0.6-1.5-0.6-2.2,0.1c-0.4,0.4-0.8,0.8-1.2,1.2c-2.7,2.8-3.1,6.7-0.8,9.9
			c1.1,1.5,2.2,3.1,3.3,4.5c5.1,6.5,11.1,11.9,17.8,16.6C37.2,45.7,38.6,46.2,40.1,46.2z"/>
	</g>
</g>
</svg>
