<?xml version="1.0" encoding="utf-8"?>
<!-- Generator: Adobe Illustrator 23.0.1, SVG Export Plug-In . SVG Version: 6.00 Build 0)  -->
<svg version="1.1" id="Layer_1" xmlns="http://www.w3.org/2000/svg" xmlns:xlink="http://www.w3.org/1999/xlink" x="0px" y="0px"
	 viewBox="0 0 122.8 110.6" style="enable-background:new 0 0 122.8 110.6;" xml:space="preserve">
<style type="text/css">
	.st0{fill:#4B4B4B;}
	.st1{fill:#FFFFFF;}
</style>
<g>
	<path class="st0" d="M37.8,15.7c-10.5,0-19,8.5-19,19s8.5,19,19,19s19-8.5,19-19S48.3,15.7,37.8,15.7z M39.1,45.4
		c-0.1,0.3-0.4,0.6-0.6,0.9c-0.3,0.3-0.6,0.4-0.9,0.6c-0.4,0.1-0.7,0.2-1.1,0.2c-0.4,0-0.8-0.1-1.1-0.2c-0.4-0.1-0.7-0.3-0.9-0.6
		c-0.3-0.3-0.5-0.5-0.6-0.9c-0.1-0.3-0.2-0.7-0.2-1.1c0-0.4,0.1-0.8,0.2-1.1c0.1-0.3,0.4-0.6,0.6-0.9c0.3-0.3,0.6-0.5,0.9-0.6
		c0.4-0.1,0.7-0.2,1.1-0.2c0.4,0,0.8,0.1,1.1,0.2c0.4,0.1,0.7,0.3,0.9,0.6c0.3,0.3,0.5,0.5,0.6,0.9c0.1,0.3,0.2,0.7,0.2,1.1
		C39.4,44.7,39.3,45.1,39.1,45.4z M40,32.4c-0.1,1-0.3,2-0.5,3s-0.5,2-0.8,3h-3.3c0-0.4,0-0.8-0.1-1.2c0-0.4,0-0.8,0-1.2
		c0-0.6,0-1.2,0-1.8s0.1-1.2,0.2-1.8l1.1-9.4h4.6L40,32.4z"/>
	<path class="st1" d="M35.4,32.4c-0.1,0.6-0.1,1.2-0.2,1.8c0,0.6,0,1.2,0,1.8c0,0.4,0,0.8,0,1.2s0,0.8,0.1,1.2h3.3
		c0.3-1,0.6-2.1,0.8-3c0.2-1,0.4-2,0.5-3L41,23h-4.6L35.4,32.4z"/>
	<path class="st1" d="M38.5,42.3c-0.3-0.3-0.6-0.5-0.9-0.6c-0.4-0.1-0.7-0.2-1.1-0.2c-0.4,0-0.8,0.1-1.1,0.2
		c-0.4,0.1-0.7,0.3-0.9,0.6c-0.3,0.3-0.5,0.5-0.6,0.9c-0.1,0.3-0.2,0.7-0.2,1.1c0,0.4,0.1,0.8,0.2,1.1c0.1,0.3,0.4,0.6,0.6,0.9
		c0.3,0.3,0.6,0.4,0.9,0.6c0.4,0.1,0.7,0.2,1.1,0.2c0.4,0,0.8-0.1,1.1-0.2c0.4-0.1,0.7-0.3,0.9-0.6c0.3-0.3,0.5-0.5,0.6-0.9
		c0.1-0.3,0.2-0.7,0.2-1.1c0-0.4-0.1-0.8-0.2-1.1C39,42.9,38.8,42.6,38.5,42.3z"/>
</g>
</svg>
